<?xml version="1.0" encoding="UTF-8"?>
<!DOCTYPE svg PUBLIC "-//W3C//DTD SVG 1.1//EN" "http://www.w3.org/Graphics/SVG/1.1/DTD/svg11.dtd">
<!-- Creator: CorelDRAW X7 -->
<svg xmlns="http://www.w3.org/2000/svg" xml:space="preserve" width="2480px" height="3508px" version="1.1" shape-rendering="geometricPrecision" text-rendering="geometricPrecision" image-rendering="optimizeQuality" fill-rule="evenodd" clip-rule="evenodd"
viewBox="0 0 248000 350743"
 xmlns:xlink="http://www.w3.org/1999/xlink">
 <g id="Слой_x0020_1">
  <metadata id="CorelCorpID_0Corel-Layer"/>
  <path fill="#00B3DB" d="M14965 331497l20395 0 -10239 -20759 -10156 20759zm-14939 18086l22703 -46869 4784 0 22955 46869 -6253 0 -6295 -12609 -25598 0 -6127 12609 -6169 0z"/>
  <polygon fill="#00B3DB" points="65232,349583 65232,313328 98846,313328 98846,318634 70855,318634 70855,327677 89236,327677 89236,332899 70855,332899 70855,344361 100398,344361 100398,349583 "/>
  <polygon fill="#00B3DB" points="125485,349583 125485,318380 110378,318380 110378,313328 146216,313328 146216,318380 131067,318380 131067,349583 "/>
  <polygon fill="#00B3DB" points="170673,349583 170673,331073 154349,313328 161567,313328 173443,326191 185109,313328 192579,313328 176171,330988 176171,349583 "/>
  <polygon fill="#F1F2F1" points="214141,349583 202013,313328 207552,313328 216281,339861 225304,313328 229962,313328 238984,339861 247755,313328 253252,313328 241208,349583 237180,349583 227654,321691 218086,349583 "/>
  <path fill="#F1F2F1" d="M287446 345422c4784,0 8686,-1308 11708,-3926 3021,-2617 4532,-5950 4532,-9999 0,-4018 -1518,-7344 -4553,-9976 -3036,-2632 -6932,-3948 -11688,-3948 -4756,0 -8638,1309 -11645,3927 -3007,2618 -4511,5950 -4511,9997 0,4049 1503,7382 4511,9999 3007,2618 6889,3926 11646,3926zm0 5307c-6379,0 -11625,-1825 -15737,-5476 -4113,-3651 -6169,-8236 -6169,-13756 0,-5546 2049,-10125 6148,-13733 4097,-3609 9350,-5413 15757,-5413 6463,0 11744,1798 15843,5392 4098,3594 6147,8179 6147,13754 0,5548 -2056,10141 -6169,13777 -4112,3637 -9386,5455 -15820,5455z"/>
  <path fill="#F1F2F1" d="M332844 328441l19052 0c1930,0 3405,-425 4427,-1274 1021,-849 1532,-2065 1532,-3651 0,-1584 -511,-2794 -1532,-3630 -1022,-834 -2497,-1252 -4427,-1252l-19052 0 0 9807zm0 5307l0 15835 -5624 0 0 -36171 24676 0c3664,0 6531,892 8603,2675 2070,1783 3105,4260 3105,7429 0,2576 -818,4805 -2455,6687 -1637,1882 -3771,3035 -6400,3460l9946 15920 -6085 0 -10156 -15835 -15610 0z"/>
  <polygon fill="#F1F2F1" points="382396,349583 382396,313412 388019,313412 388019,329502 406988,313412 414374,313412 399350,326276 416640,349583 410345,349583 395405,329587 388019,335913 388019,349583 "/>
  <path fill="#00B3DB" d="M180237 209763l-7426 -14851 -20292 -40580 -8660 -17317 -18564 37883c-1214,2476 -1202,5377 32,7843l13512 27022 27263 54521c1497,2995 4559,4887 7907,4887l35935 0 -29707 -59408z"/>
  <path fill="#00B3DB" d="M118035 188857l-3028 6055 -7426 14851 -29707 59408 35935 0c3348,0 6409,-1892 7907,-4887l13723 -27443c2074,-4149 2074,-9032 0,-13180l-6950 -13898 -10454 -20906z"/>
  <path fill="#F1F2F1" d="M236429 196423l7426 14850 20292 40581 8660 17317 18563 -37883c1214,-2476 1202,-5377 -31,-7844l-13512 -27021 -27264 -54522c-1498,-2995 -4558,-4886 -7907,-4886l-35934 0 29707 59408z"/>
  <path fill="#F1F2F1" d="M184466 196423l7425 14850 20293 40581 8659 17317 18564 -37883c1214,-2476 1202,-5377 -31,-7844l-13512 -27021 -27264 -54522c-1498,-2995 -4558,-4886 -7907,-4886l-35935 0 29708 59408z"/>
  <path fill="#F1F2F1" d="M298630 217329l3028 -6056 7426 -14850 29707 -59408 -35934 0c-3349,0 -6410,1891 -7907,4886l-13724 27444c-2074,4148 -2074,9031 0,13180l6950 13898 10454 20906z"/>
 </g>
</svg>
