<?xml version="1.0" encoding="UTF-8" standalone="no"?>
<svg
   xmlns:dc="http://purl.org/dc/elements/1.1/"
   xmlns:cc="http://creativecommons.org/ns#"
   xmlns:rdf="http://www.w3.org/1999/02/22-rdf-syntax-ns#"
   xmlns:svg="http://www.w3.org/2000/svg"
   xmlns="http://www.w3.org/2000/svg"
   viewBox="0 0 1333.3333 124.8"
   height="124.8"
   width="1333.3333"
   xml:space="preserve"
   id="svg2"
   version="1.1"><metadata
     id="metadata8"><rdf:RDF><cc:Work
         rdf:about=""><dc:format>image/svg+xml</dc:format><dc:type
           rdf:resource="http://purl.org/dc/dcmitype/StillImage" /></cc:Work></rdf:RDF></metadata><defs
     id="defs6" /><g
     transform="matrix(1.3333333,0,0,-1.3333333,0,124.8)"
     id="g10"><g
       transform="scale(0.1)"
       id="g12"><path
         id="path14"
         style="fill:#00b3db;fill-opacity:1;fill-rule:nonzero;stroke:none"
         d="m 2169.78,374.902 h 397.58 L 2367.75,779.59 Z M 1878.55,22.3477 2321.12,936 h 93.26 L 2861.86,22.3477 H 2739.97 L 2617.26,268.137 H 2118.24 L 1998.8,22.3477 h -120.25" /><path
         id="path16"
         style="fill:#00b3db;fill-opacity:1;fill-rule:nonzero;stroke:none"
         d="M 3149.67,22.3477 V 729.109 h 655.27 V 625.66 H 3259.29 V 449.391 h 358.32 V 347.594 H 3259.29 V 124.137 h 575.92 V 22.3477 h -685.54" /><path
         id="path18"
         style="fill:#00b3db;fill-opacity:1;fill-rule:nonzero;stroke:none"
         d="M 4324.25,22.3477 V 630.625 h -294.5 v 98.484 h 698.62 V 630.625 H 4433.05 V 22.3477 h -108.8" /><path
         id="path20"
         style="fill:#00b3db;fill-opacity:1;fill-rule:nonzero;stroke:none"
         d="M 5205.14,22.3477 V 383.18 l -318.23,345.929 h 140.72 l 231.51,-250.757 227.42,250.757 h 145.62 L 5312.31,384.836 V 22.3477 h -107.17" /><path
         id="path22"
         style="fill:#f1f2f1;fill-opacity:1;fill-rule:nonzero;stroke:none"
         d="M 6052.5,22.3477 5816.08,729.109 h 107.98 l 170.16,-517.25 175.88,517.25 h 90.81 l 175.88,-517.25 170.98,517.25 h 107.17 L 6580.15,22.3477 h -78.53 L 6315.92,566.074 6129.4,22.3477 h -76.9" /><path
         id="path24"
         style="fill:#f1f2f1;fill-opacity:1;fill-rule:nonzero;stroke:none"
         d="m 7481.5,103.449 c 93.26,0 169.34,25.512 228.24,76.551 58.9,51.02 88.35,115.984 88.35,194.902 0,78.332 -29.59,143.176 -88.76,194.485 -59.19,51.308 -135.12,76.961 -227.83,76.961 -92.73,0 -168.4,-25.528 -227.02,-76.547 -58.63,-51.043 -87.94,-116.008 -87.94,-194.899 0,-78.918 29.31,-143.882 87.94,-194.902 58.62,-51.039 134.29,-76.551 227.02,-76.551 z M 7481.5,0 c -124.35,0 -226.61,35.5859 -306.78,106.762 -80.17,71.168 -120.25,160.547 -120.25,268.14 0,108.125 39.94,197.379 119.84,267.723 79.89,70.348 182.29,105.516 307.19,105.516 125.98,0 228.91,-35.047 308.82,-105.102 79.88,-70.074 119.85,-159.453 119.85,-268.137 0,-108.148 -40.09,-197.672 -120.26,-268.554 C 7709.74,35.4414 7606.93,0 7481.5,0" /><path
         id="path26"
         style="fill:#f1f2f1;fill-opacity:1;fill-rule:nonzero;stroke:none"
         d="m 8366.48,434.488 h 371.41 c 37.63,0 66.38,8.278 86.3,24.828 19.9,16.551 29.86,40.262 29.86,71.172 0,30.891 -9.96,54.477 -29.86,70.758 -19.92,16.262 -48.67,24.414 -86.3,24.414 h -371.41 z m 0,-103.445 V 22.3477 H 8256.86 V 727.453 h 481.03 c 71.43,0 127.33,-17.379 167.7,-52.14 40.35,-34.754 60.54,-83.043 60.54,-144.825 0,-50.211 -15.96,-93.66 -47.86,-130.343 -31.9,-36.704 -73.5,-59.172 -124.76,-67.446 L 8987.4,22.3477 H 8868.77 L 8670.8,331.043 h -304.32" /><path
         id="path28"
         style="fill:#f1f2f1;fill-opacity:1;fill-rule:nonzero;stroke:none"
         d="M 9332.46,22.3477 V 727.453 h 109.62 V 413.801 l 369.76,313.652 h 143.98 L 9662.95,476.695 10000,22.3477 H 9877.29 L 9586.06,412.145 9442.08,288.828 V 22.3477 h -109.62" /><path
         id="path30"
         style="fill:#00b3db;fill-opacity:1;fill-rule:nonzero;stroke:none"
         d="M 706.746,433.723 655.473,536.258 515.367,816.438 455.578,936 327.406,674.445 c -8.379,-17.097 -8.297,-37.125 0.223,-54.156 L 420.922,433.723 609.152,57.2891 c 10.34,-20.6797 31.477,-33.7383 54.594,-33.7383 H 911.852 L 706.746,433.723" /><path
         id="path32"
         style="fill:#00b3db;fill-opacity:1;fill-rule:nonzero;stroke:none"
         d="M 277.285,578.066 256.379,536.258 205.109,433.723 0,23.5508 h 248.105 c 23.118,0 44.25,13.0586 54.59,33.7383 l 94.75,189.4809 c 14.325,28.64 14.325,62.355 0,90.996 l -47.98,95.957 -72.18,144.343" /><path
         id="path34"
         style="fill:#f1f2f1;fill-opacity:1;fill-rule:nonzero;stroke:none"
         d="m 1094.71,525.828 51.27,-102.531 140.11,-280.184 59.79,-119.5622 128.17,261.5542 c 8.38,17.102 8.3,37.125 -0.22,54.157 L 1380.54,525.828 1192.3,902.262 C 1181.96,922.941 1160.83,936 1137.71,936 H 889.602 L 1094.71,525.828" /><path
         id="path36"
         style="fill:#f1f2f1;fill-opacity:1;fill-rule:nonzero;stroke:none"
         d="M 735.941,525.828 787.211,423.297 927.316,143.113 987.105,23.5508 1115.28,285.105 c 8.37,17.102 8.3,37.125 -0.22,54.157 L 1021.77,525.828 833.527,902.262 C 823.191,922.941 802.059,936 778.941,936 H 530.836 L 735.941,525.828" /><path
         id="path38"
         style="fill:#f1f2f1;fill-opacity:1;fill-rule:nonzero;stroke:none"
         d="m 1524.17,381.484 20.91,41.813 51.27,102.531 L 1801.46,936 h -248.11 c -23.12,0 -44.25,-13.059 -54.59,-33.738 l -94.75,-189.481 c -14.32,-28.64 -14.32,-62.351 0,-90.996 l 47.98,-95.957 72.18,-144.344" /></g></g></svg>