<?xml version="1.0" encoding="UTF-8" standalone="no"?>
<svg
   xmlns:dc="http://purl.org/dc/elements/1.1/"
   xmlns:cc="http://creativecommons.org/ns#"
   xmlns:rdf="http://www.w3.org/1999/02/22-rdf-syntax-ns#"
   xmlns:svg="http://www.w3.org/2000/svg"
   xmlns="http://www.w3.org/2000/svg"
   viewBox="0 0 1333.3333 683.97333"
   height="683.97333"
   width="1333.3333"
   xml:space="preserve"
   id="svg2"
   version="1.1"><metadata
     id="metadata8"><rdf:RDF><cc:Work
         rdf:about=""><dc:format>image/svg+xml</dc:format><dc:type
           rdf:resource="http://purl.org/dc/dcmitype/StillImage" /></cc:Work></rdf:RDF></metadata><defs
     id="defs6" /><g
     transform="matrix(1.3333333,0,0,-1.3333333,0,683.97333)"
     id="g10"><g
       transform="scale(0.1)"
       id="g12"><path
         id="path14"
         style="fill:#00b3db;fill-opacity:1;fill-rule:nonzero;stroke:none"
         d="M 358.598,461.621 H 848.141 L 602.359,959.91 Z M 0,27.5117 544.945,1152.5 H 659.773 L 1210.76,27.5117 H 1060.68 L 909.582,330.16 H 295.137 L 148.07,27.5117 H 0" /><path
         id="path16"
         style="fill:#00b3db;fill-opacity:1;fill-rule:nonzero;stroke:none"
         d="M 1565.14,27.5117 V 897.75 h 806.84 V 770.379 H 1700.12 V 553.328 h 441.19 V 427.988 H 1700.12 V 152.852 h 709.13 V 27.5117 h -844.11" /><path
         id="path18"
         style="fill:#00b3db;fill-opacity:1;fill-rule:nonzero;stroke:none"
         d="M 3011.41,27.5117 V 776.488 H 2648.79 V 897.75 h 860.22 V 776.488 H 3145.38 V 27.5117 h -133.97" /><path
         id="path20"
         style="fill:#00b3db;fill-opacity:1;fill-rule:nonzero;stroke:none"
         d="M 4096.06,27.5117 V 471.809 L 3704.23,897.75 h 173.25 L 4162.55,589 4442.57,897.75 h 179.3 L 4228.02,473.852 V 27.5117 h -131.96" /><path
         id="path22"
         style="fill:#f1f2f1;fill-opacity:1;fill-rule:nonzero;stroke:none"
         d="M 5139.41,27.5117 4848.31,897.75 h 132.96 l 209.52,-636.879 216.56,636.879 h 111.81 l 216.57,-636.879 210.52,636.879 h 131.96 L 5789.12,27.5117 h -96.7 L 5463.76,697.012 5234.1,27.5117 h -94.69" /><path
         id="path24"
         style="fill:#f1f2f1;fill-opacity:1;fill-rule:nonzero;stroke:none"
         d="m 6898.95,127.379 c 114.83,0 208.51,31.41 281.04,94.25 72.52,62.82 108.78,142.82 108.78,239.992 0,96.449 -36.43,176.289 -109.29,239.469 -72.87,63.18 -166.38,94.762 -280.53,94.762 -114.18,0 -207.35,-31.43 -279.52,-94.25 -72.2,-62.852 -108.28,-142.84 -108.28,-239.981 0,-97.172 36.08,-177.172 108.28,-239.992 72.17,-62.84 165.34,-94.25 279.52,-94.25 z M 6898.95,0 c -153.1,0 -279.02,43.8203 -377.73,131.449 -98.72,87.641 -148.07,197.692 -148.07,330.172 0,133.129 49.18,243.027 147.56,329.649 98.36,86.609 224.45,129.921 378.24,129.921 155.12,0 281.87,-43.16 380.26,-129.41 98.36,-86.293 147.56,-196.34 147.56,-330.16 0,-133.172 -49.36,-243.402 -148.07,-330.68 C 7179.99,43.6406 7053.39,0 6898.95,0" /><path
         id="path26"
         style="fill:#f1f2f1;fill-opacity:1;fill-rule:nonzero;stroke:none"
         d="m 7988.64,534.988 h 457.31 c 46.34,0 81.74,10.192 106.27,30.571 24.5,20.382 36.77,49.57 36.77,87.632 0,38.039 -12.27,67.079 -36.77,87.129 -24.53,20.02 -59.93,30.059 -106.27,30.059 h -457.31 z m 0,-127.379 V 27.5117 H 7853.66 V 895.719 h 592.29 c 87.96,0 156.78,-21.399 206.5,-64.199 49.68,-42.801 74.54,-102.258 74.54,-178.329 0,-61.82 -19.65,-115.32 -58.93,-160.492 -39.29,-45.187 -90.51,-72.859 -153.61,-83.051 L 8753.17,27.5117 H 8607.11 L 8363.35,407.609 h -374.71" /><path
         id="path28"
         style="fill:#f1f2f1;fill-opacity:1;fill-rule:nonzero;stroke:none"
         d="M 9178.05,27.5117 V 895.719 h 134.98 V 509.512 l 455.29,386.207 h 177.29 L 9584.99,586.961 10000,27.5117 H 9848.91 L 9490.31,507.48 9313.03,355.629 V 27.5117 h -134.98" /><path
         id="path30"
         style="fill:#00b3db;fill-opacity:1;fill-rule:nonzero;stroke:none"
         d="m 4325.61,3383.62 -178.25,356.46 -487.07,974.05 -207.86,415.67 -445.59,-909.31 c -29.13,-59.44 -28.85,-129.06 0.76,-188.27 l 324.33,-648.6 654.41,-1308.68 c 35.94,-71.89 109.42,-117.3 189.79,-117.3 h 862.54 l -713.06,1425.98" /><path
         id="path32"
         style="fill:#00b3db;fill-opacity:1;fill-rule:nonzero;stroke:none"
         d="M 2832.59,3885.43 2759.9,3740.08 2581.66,3383.62 1868.6,1957.64 h 862.54 c 80.37,0 153.84,45.41 189.79,117.3 l 329.4,658.73 c 49.79,99.58 49.79,216.78 0,316.35 l -166.82,333.6 -250.92,501.81" /><path
         id="path34"
         style="fill:#f1f2f1;fill-opacity:1;fill-rule:nonzero;stroke:none"
         d="m 5674.39,3703.82 178.24,-356.45 487.08,-974.06 207.86,-415.67 445.58,909.31 c 29.13,59.44 28.86,129.07 -0.75,188.28 l -324.33,648.59 -654.42,1308.69 c -35.94,71.88 -109.41,117.29 -189.78,117.29 h -862.54 l 713.06,-1425.98" /><path
         id="path36"
         style="fill:#f1f2f1;fill-opacity:1;fill-rule:nonzero;stroke:none"
         d="m 4427.12,3703.82 178.24,-356.45 487.08,-974.06 207.85,-415.67 445.59,909.31 c 29.13,59.44 28.85,129.07 -0.75,188.28 l -324.33,648.59 -654.42,1308.69 c -35.94,71.88 -109.41,117.29 -189.78,117.29 h -862.55 l 713.07,-1425.98" /><path
         id="path38"
         style="fill:#f1f2f1;fill-opacity:1;fill-rule:nonzero;stroke:none"
         d="m 7167.41,3202.01 72.69,145.36 178.24,356.45 713.06,1425.98 h -862.54 c -80.37,0 -153.84,-45.41 -189.79,-117.29 l -329.4,-658.74 c -49.79,-99.57 -49.79,-216.77 0,-316.35 l 166.82,-333.6 250.92,-501.81" /></g></g></svg>